<?xml version="1.0" encoding="UTF-8" standalone="no"?><svg xmlns="http://www.w3.org/2000/svg" xmlns:xlink="http://www.w3.org/1999/xlink" height="452" version="1.1" width="486.29443359375"><defs/><g><g><rect fill="#C0C0C0" fill-opacity="0.2" height="116" stroke="none" transform="matrix(1 0 0 1 -566 -198)" width="169.29443359375" x="879" y="367"/></g><g><rect fill="#ffffff" height="116" stroke="none" transform="matrix(1 0 0 1 -566 -198)" width="169.29443359375" x="872" y="360"/></g><g><path d=" M 306 162 L 475.29443359375 162 L 475.29443359375 278 L 306 278 L 306 162 Z Z" fill="none" paint-order="fill stroke markers" stroke="#000000" stroke-dasharray="" stroke-miterlimit="10"/></g><g><path d=" M 306 187 L 475.29443359375 187" fill="none" paint-order="fill stroke markers" stroke="#000000" stroke-dasharray="" stroke-miterlimit="10"/></g><g><path d=" M 306 240 L 475.29443359375 240" fill="none" paint-order="fill stroke markers" stroke="#000000" stroke-dasharray="" stroke-miterlimit="10"/></g><g><g><path fill="none" stroke="none"/><text dominant-baseline="central" fill="#000000" font-family="Arial" font-size="13px" font-style="normal" font-weight="bold" stroke="none" text-anchor="middle" text-decoration="undefined" transform="matrix(1 0 0 1 -566 -198)" x="957.147216796875" y="373.5">Сотрудник</text></g></g><g><g><path fill="none" stroke="none"/><text dominant-baseline="central" fill="#000000" font-family="Arial" font-size="13px" font-style="normal" font-weight="normal" stroke="none" text-anchor="start" text-decoration="undefined" transform="matrix(1 0 0 1 -566 -198)" x="877" y="396.5">+ФИО</text></g></g><g><g><path fill="none" stroke="none"/><text dominant-baseline="central" fill="#000000" font-family="Arial" font-size="13px" font-style="normal" font-weight="normal" stroke="none" text-anchor="start" text-decoration="undefined" transform="matrix(1 0 0 1 -566 -198)" x="877" y="411.5">+Должность</text></g></g><g><g><path fill="none" stroke="none"/><text dominant-baseline="central" fill="#000000" font-family="Arial" font-size="13px" font-style="normal" font-weight="normal" stroke="none" text-anchor="start" text-decoration="undefined" transform="matrix(1 0 0 1 -566 -198)" x="877" y="426.5">+Контактные данные</text></g></g><g><g><path fill="none" stroke="none"/><text dominant-baseline="central" fill="#000000" font-family="Arial" font-size="13px" font-style="normal" font-weight="normal" stroke="none" text-anchor="start" text-decoration="undefined" transform="matrix(1 0 0 1 -566 -198)" x="877" y="449.5">+СоздатьЗаказ()</text></g></g><g><g><path fill="none" stroke="none"/><text dominant-baseline="central" fill="#000000" font-family="Arial" font-size="13px" font-style="normal" font-weight="normal" stroke="none" text-anchor="start" text-decoration="undefined" transform="matrix(1 0 0 1 -566 -198)" x="877" y="464.5">+ПровестиКонсультацию()</text></g></g><g><rect fill="#C0C0C0" fill-opacity="0.2" height="88" stroke="none" transform="matrix(1 0 0 1 -566 -198)" width="104.9482421875" x="583" y="383"/></g><g><rect fill="#ffffff" height="88" stroke="none" transform="matrix(1 0 0 1 -566 -198)" width="104.9482421875" x="576" y="376"/></g><g><path d=" M 10 178 L 114.9482421875 178 L 114.9482421875 266 L 10 266 L 10 178 Z Z" fill="none" paint-order="fill stroke markers" stroke="#000000" stroke-dasharray="" stroke-miterlimit="10"/></g><g><path d=" M 10 203 L 114.9482421875 203" fill="none" paint-order="fill stroke markers" stroke="#000000" stroke-dasharray="" stroke-miterlimit="10"/></g><g><path d=" M 10 256 L 114.9482421875 256" fill="none" paint-order="fill stroke markers" stroke="#000000" stroke-dasharray="" stroke-miterlimit="10"/></g><g><g><path fill="none" stroke="none"/><text dominant-baseline="central" fill="#000000" font-family="Arial" font-size="13px" font-style="normal" font-weight="bold" stroke="none" text-anchor="middle" text-decoration="undefined" transform="matrix(1 0 0 1 -566 -198)" x="628.97412109375" y="389.5">Заказ</text></g></g><g><g><path fill="none" stroke="none"/><text dominant-baseline="central" fill="#000000" font-family="Arial" font-size="13px" font-style="normal" font-weight="normal" stroke="none" text-anchor="start" text-decoration="undefined" transform="matrix(1 0 0 1 -566 -198)" x="581" y="412.5">+Номер заказа</text></g></g><g><g><path fill="none" stroke="none"/><text dominant-baseline="central" fill="#000000" font-family="Arial" font-size="13px" font-style="normal" font-weight="normal" stroke="none" text-anchor="start" text-decoration="undefined" transform="matrix(1 0 0 1 -566 -198)" x="581" y="427.5">+Срок доставки</text></g></g><g><g><path fill="none" stroke="none"/><text dominant-baseline="central" fill="#000000" font-family="Arial" font-size="13px" font-style="normal" font-weight="normal" stroke="none" text-anchor="start" text-decoration="undefined" transform="matrix(1 0 0 1 -566 -198)" x="581" y="442.5">+Статус</text></g></g><g><rect fill="#C0C0C0" fill-opacity="0.2" height="88" stroke="none" transform="matrix(1 0 0 1 -566 -198)" width="78.3642578125" x="591" y="535"/></g><g><rect fill="#ffffff" height="88" stroke="none" transform="matrix(1 0 0 1 -566 -198)" width="78.3642578125" x="584" y="528"/></g><g><path d=" M 18 330 L 96.3642578125 330 L 96.3642578125 418 L 18 418 L 18 330 Z Z" fill="none" paint-order="fill stroke markers" stroke="#000000" stroke-dasharray="" stroke-miterlimit="10"/></g><g><path d=" M 18 355 L 96.3642578125 355" fill="none" paint-order="fill stroke markers" stroke="#000000" stroke-dasharray="" stroke-miterlimit="10"/></g><g><path d=" M 18 408 L 96.3642578125 408" fill="none" paint-order="fill stroke markers" stroke="#000000" stroke-dasharray="" stroke-miterlimit="10"/></g><g><g><path fill="none" stroke="none"/><text dominant-baseline="central" fill="#000000" font-family="Arial" font-size="13px" font-style="normal" font-weight="bold" stroke="none" text-anchor="middle" text-decoration="undefined" transform="matrix(1 0 0 1 -566 -198)" x="623.68212890625" y="541.5">Товар</text></g></g><g><g><path fill="none" stroke="none"/><text dominant-baseline="central" fill="#000000" font-family="Arial" font-size="13px" font-style="normal" font-weight="normal" stroke="none" text-anchor="start" text-decoration="undefined" transform="matrix(1 0 0 1 -566 -198)" x="589" y="564.5">+Название</text></g></g><g><g><path fill="none" stroke="none"/><text dominant-baseline="central" fill="#000000" font-family="Arial" font-size="13px" font-style="normal" font-weight="normal" stroke="none" text-anchor="start" text-decoration="undefined" transform="matrix(1 0 0 1 -566 -198)" x="589" y="579.5">+Категория</text></g></g><g><g><path fill="none" stroke="none"/><text dominant-baseline="central" fill="#000000" font-family="Arial" font-size="13px" font-style="normal" font-weight="normal" stroke="none" text-anchor="start" text-decoration="undefined" transform="matrix(1 0 0 1 -566 -198)" x="589" y="594.5">+Цена</text></g></g><g><rect fill="#C0C0C0" fill-opacity="0.2" height="104" stroke="none" transform="matrix(1 0 0 1 -566 -198)" width="108.54736328125" x="911" y="543"/></g><g><rect fill="#ffffff" height="104" stroke="none" transform="matrix(1 0 0 1 -566 -198)" width="108.54736328125" x="904" y="536"/></g><g><path d=" M 338 338 L 446.54736328125 338 L 446.54736328125 442 L 338 442 L 338 338 Z Z" fill="none" paint-order="fill stroke markers" stroke="#000000" stroke-dasharray="" stroke-miterlimit="10"/></g><g><path d=" M 338 363 L 446.54736328125 363" fill="none" paint-order="fill stroke markers" stroke="#000000" stroke-dasharray="" stroke-miterlimit="10"/></g><g><path d=" M 338 416 L 446.54736328125 416" fill="none" paint-order="fill stroke markers" stroke="#000000" stroke-dasharray="" stroke-miterlimit="10"/></g><g><g><path fill="none" stroke="none"/><text dominant-baseline="central" fill="#000000" font-family="Arial" font-size="13px" font-style="normal" font-weight="bold" stroke="none" text-anchor="middle" text-decoration="undefined" transform="matrix(1 0 0 1 -566 -198)" x="958.773681640625" y="549.5">Платеж</text></g></g><g><g><path fill="none" stroke="none"/><text dominant-baseline="central" fill="#000000" font-family="Arial" font-size="13px" font-style="normal" font-weight="normal" stroke="none" text-anchor="start" text-decoration="undefined" transform="matrix(1 0 0 1 -566 -198)" x="909" y="572.5">+Сумма</text></g></g><g><g><path fill="none" stroke="none"/><text dominant-baseline="central" fill="#000000" font-family="Arial" font-size="13px" font-style="normal" font-weight="normal" stroke="none" text-anchor="start" text-decoration="undefined" transform="matrix(1 0 0 1 -566 -198)" x="909" y="587.5">+Статус</text></g></g><g><g><path fill="none" stroke="none"/><text dominant-baseline="central" fill="#000000" font-family="Arial" font-size="13px" font-style="normal" font-weight="normal" stroke="none" text-anchor="start" text-decoration="undefined" transform="matrix(1 0 0 1 -566 -198)" x="909" y="602.5">+Дата платежа</text></g></g><g><g><path fill="none" stroke="none"/><text dominant-baseline="central" fill="#000000" font-family="Arial" font-size="13px" font-style="normal" font-weight="normal" stroke="none" text-anchor="start" text-decoration="undefined" transform="matrix(1 0 0 1 -566 -198)" x="909" y="625.5">+Обработать()</text></g></g><g><rect fill="#C0C0C0" fill-opacity="0.2" height="86" stroke="none" transform="matrix(1 0 0 1 -566 -198)" width="137.51171875" x="895" y="215"/></g><g><rect fill="#ffffff" height="86" stroke="none" transform="matrix(1 0 0 1 -566 -198)" width="137.51171875" x="888" y="208"/></g><g><path d=" M 322 10 L 459.51171875 10 L 459.51171875 96 L 322 96 L 322 10 Z Z" fill="none" paint-order="fill stroke markers" stroke="#000000" stroke-dasharray="" stroke-miterlimit="10"/></g><g><path d=" M 322 35 L 459.51171875 35" fill="none" paint-order="fill stroke markers" stroke="#000000" stroke-dasharray="" stroke-miterlimit="10"/></g><g><path d=" M 322 73 L 459.51171875 73" fill="none" paint-order="fill stroke markers" stroke="#000000" stroke-dasharray="" stroke-miterlimit="10"/></g><g><g><path fill="none" stroke="none"/><text dominant-baseline="central" fill="#000000" font-family="Arial" font-size="13px" font-style="normal" font-weight="bold" stroke="none" text-anchor="middle" text-decoration="undefined" transform="matrix(1 0 0 1 -566 -198)" x="957.255859375" y="221.5">Партнер</text></g></g><g><g><path fill="none" stroke="none"/><text dominant-baseline="central" fill="#000000" font-family="Arial" font-size="13px" font-style="normal" font-weight="normal" stroke="none" text-anchor="start" text-decoration="undefined" transform="matrix(1 0 0 1 -566 -198)" x="893" y="244.5">+ФИО</text></g></g><g><g><path fill="none" stroke="none"/><text dominant-baseline="central" fill="#000000" font-family="Arial" font-size="13px" font-style="normal" font-weight="normal" stroke="none" text-anchor="start" text-decoration="undefined" transform="matrix(1 0 0 1 -566 -198)" x="893" y="259.5">+Контактные данные</text></g></g><g><g><path fill="none" stroke="none"/><text dominant-baseline="central" fill="#000000" font-family="Arial" font-size="13px" font-style="normal" font-weight="normal" stroke="none" text-anchor="start" text-decoration="undefined" transform="matrix(1 0 0 1 -566 -198)" x="893" y="282.5">+Оплатить(Заказ)</text></g></g><g><path d=" M 58 329 L 61 267" fill="none" paint-order="fill stroke markers" stroke="#000000" stroke-dasharray="" stroke-miterlimit="10"/></g><g><path d=" M 64.71343081726855 277.3542470303427 L 61 267 L 56.30423382312165 276.94735040159367 L 59.936727868686944 288.974290713804" fill="#FFFFFF" paint-order="stroke fill markers" stroke="none"/></g><g><path d=" M 64.71343081726855 277.3542470303427 L 61 267 L 56.30423382312165 276.94735040159367 L 59.936727868686944 288.974290713804 L 64.71343081726855 277.3542470303427" fill="none" paint-order="fill stroke markers" stroke="#000000" stroke-dasharray="" stroke-miterlimit="10"/></g><g><rect fill="#ffffff" height="13" stroke="none" transform="matrix(1 0 0 1 -566 -198)" width="13" x="631" y="511"/></g><g><g><path fill="none" stroke="none"/><text dominant-baseline="central" fill="#000000" font-family="Arial" font-size="13px" font-style="normal" font-weight="normal" stroke="none" text-anchor="middle" text-decoration="undefined" transform="matrix(1 0 0 1 -566 -198)" x="637.5" y="517.5">1*</text></g></g><g><rect fill="#ffffff" height="13" stroke="none" transform="matrix(1 0 0 1 -566 -198)" width="21.68359375" x="635" y="471"/></g><g><g><path fill="none" stroke="none"/><text dominant-baseline="central" fill="#000000" font-family="Arial" font-size="13px" font-style="normal" font-weight="normal" stroke="none" text-anchor="middle" text-decoration="undefined" transform="matrix(1 0 0 1 -566 -198)" x="645.841796875" y="477.5">1</text></g></g><g><path d=" M 305 221 L 116 222" fill="none" paint-order="fill stroke markers" stroke="#000000" stroke-dasharray="" stroke-miterlimit="10"/></g><g><path d=" M 126.14026034093717 217.7367711511091 L 116 222 L 126.18480487887462 226.15568882127286" fill="none" paint-order="fill stroke markers" stroke="#000000" stroke-dasharray="" stroke-miterlimit="10"/></g><g><rect fill="#ffffff" height="13" stroke="none" transform="matrix(1 0 0 1 -566 -198)" width="10" x="847" y="400"/></g><g><g><path fill="none" stroke="none"/><text dominant-baseline="central" fill="#000000" font-family="Arial" font-size="13px" font-style="normal" font-weight="normal" stroke="none" text-anchor="middle" text-decoration="undefined" transform="matrix(1 0 0 1 -566 -198)" x="852" y="406.5">1</text></g></g><g><rect fill="#ffffff" height="13" stroke="none" transform="matrix(1 0 0 1 -566 -198)" width="6.5" x="700" y="401"/></g><g><g><path fill="none" stroke="none"/><text dominant-baseline="central" fill="#000000" font-family="Arial" font-size="13px" font-style="normal" font-weight="normal" stroke="none" text-anchor="middle" text-decoration="undefined" transform="matrix(1 0 0 1 -566 -198)" x="703.25" y="407.5">*</text></g></g><g><path d=" M 391 279 L 391 337" fill="none" paint-order="fill stroke markers" stroke="#000000" stroke-dasharray="" stroke-miterlimit="10"/></g><g><path d=" M 386.790482243984 326.8373251423759 L 391 337 L 395.209517756016 326.8373251423759" fill="none" paint-order="fill stroke markers" stroke="#000000" stroke-dasharray="" stroke-miterlimit="10"/></g><g><rect fill="#ffffff" height="13" stroke="none" transform="matrix(1 0 0 1 -566 -198)" width="7.22998046875" x="941" y="484"/></g><g><g><path fill="none" stroke="none"/><text dominant-baseline="central" fill="#000000" font-family="Arial" font-size="13px" font-style="normal" font-weight="normal" stroke="none" text-anchor="middle" text-decoration="undefined" transform="matrix(1 0 0 1 -566 -198)" x="944.614990234375" y="490.5">1</text></g></g><g><rect fill="#ffffff" height="13" stroke="none" transform="matrix(1 0 0 1 -566 -198)" width="13" x="938" y="519"/></g><g><g><path fill="none" stroke="none"/><text dominant-baseline="central" fill="#000000" font-family="Arial" font-size="13px" font-style="normal" font-weight="normal" stroke="none" text-anchor="middle" text-decoration="undefined" transform="matrix(1 0 0 1 -566 -198)" x="944.5" y="525.5">1*</text></g></g><g><path d=" M 390 97 L 390 161" fill="none" paint-order="fill stroke markers" stroke="#000000" stroke-dasharray="" stroke-miterlimit="10"/></g><g><rect fill="#ffffff" height="13" stroke="none" transform="matrix(1 0 0 1 -566 -198)" width="13" x="937" y="301"/></g><g><g><path fill="none" stroke="none"/><text dominant-baseline="central" fill="#000000" font-family="Arial" font-size="13px" font-style="normal" font-weight="normal" stroke="none" text-anchor="middle" text-decoration="undefined" transform="matrix(1 0 0 1 -566 -198)" x="943.5" y="307.5">1*</text></g></g><g><rect fill="#ffffff" height="13" stroke="none" transform="matrix(1 0 0 1 -566 -198)" width="7.22998046875" x="940" y="343"/></g><g><g><path fill="none" stroke="none"/><text dominant-baseline="central" fill="#000000" font-family="Arial" font-size="13px" font-style="normal" font-weight="normal" stroke="none" text-anchor="middle" text-decoration="undefined" transform="matrix(1 0 0 1 -566 -198)" x="943.614990234375" y="349.5">1</text></g></g></g></svg>