<?xml version="1.0" encoding="UTF-8" standalone="no"?><svg xmlns="http://www.w3.org/2000/svg" xmlns:xlink="http://www.w3.org/1999/xlink" height="1255" version="1.1" width="1676.72021484375"><defs/><g><g><path d=" M 406.44686523437497 397.85 C 406.44686523437497 392.96227952000004 410.40466760237496 389 415.286865234375 389 C 420.16906286637504 389 424.12686523437503 392.96227952000004 424.12686523437503 397.85 C 424.12686523437503 402.73772048 420.16906286637504 406.7 415.286865234375 406.7 C 410.40466760237496 406.7 406.44686523437497 402.73772048 406.44686523437497 397.85 Z" fill="#ffffff" paint-order="stroke fill markers" stroke="none"/></g><g><path d=" M 406.44686523437497 397.85 C 406.44686523437497 392.96227952000004 410.40466760237496 389 415.286865234375 389 C 420.16906286637504 389 424.12686523437503 392.96227952000004 424.12686523437503 397.85 C 424.12686523437503 402.73772048 420.16906286637504 406.7 415.286865234375 406.7 C 410.40466760237496 406.7 406.44686523437497 402.73772048 406.44686523437497 397.85 Z" fill="none" paint-order="fill stroke markers" stroke="#000000" stroke-dasharray="" stroke-miterlimit="10"/></g><g><path d=" M 415.286865234375 406.7 L 415.286865234375 424.3" fill="none" paint-order="fill stroke markers" stroke="#000000" stroke-dasharray="" stroke-miterlimit="10"/></g><g><path d=" M 405.926865234375 413.3 L 424.646865234375 413.3" fill="none" paint-order="fill stroke markers" stroke="#000000" stroke-dasharray="" stroke-miterlimit="10"/></g><g><path d=" M 415.286865234375 424.3 L 402.286865234375 442" fill="none" paint-order="fill stroke markers" stroke="#000000" stroke-dasharray="" stroke-miterlimit="10"/></g><g><path d=" M 415.286865234375 424.3 L 428.286865234375 442" fill="none" paint-order="fill stroke markers" stroke="#000000" stroke-dasharray="" stroke-miterlimit="10"/></g><g><g><path fill="none" stroke="none"/><text dominant-baseline="central" fill="#000000" font-family="Arial" font-size="13px" font-style="normal" font-weight="bold" stroke="none" text-anchor="middle" text-decoration="undefined" transform="matrix(1 0 0 1 -262 -20)" x="677.786865234375" y="476.5">Менеджер по работе с партнерами</text></g></g><g><path d=" M 1573.020107421875 205.85 C 1573.020107421875 200.96227952 1576.977909789875 197 1581.860107421875 197 C 1586.742305053875 197 1590.700107421875 200.96227952 1590.700107421875 205.85 C 1590.700107421875 210.73772047999998 1586.742305053875 214.7 1581.860107421875 214.7 C 1576.977909789875 214.7 1573.020107421875 210.73772047999998 1573.020107421875 205.85 Z" fill="#ffffff" paint-order="stroke fill markers" stroke="none"/></g><g><path d=" M 1573.020107421875 205.85 C 1573.020107421875 200.96227952 1576.977909789875 197 1581.860107421875 197 C 1586.742305053875 197 1590.700107421875 200.96227952 1590.700107421875 205.85 C 1590.700107421875 210.73772047999998 1586.742305053875 214.7 1581.860107421875 214.7 C 1576.977909789875 214.7 1573.020107421875 210.73772047999998 1573.020107421875 205.85 Z" fill="none" paint-order="fill stroke markers" stroke="#000000" stroke-dasharray="" stroke-miterlimit="10"/></g><g><path d=" M 1581.860107421875 214.7 L 1581.860107421875 232.3" fill="none" paint-order="fill stroke markers" stroke="#000000" stroke-dasharray="" stroke-miterlimit="10"/></g><g><path d=" M 1572.500107421875 221.3 L 1591.220107421875 221.3" fill="none" paint-order="fill stroke markers" stroke="#000000" stroke-dasharray="" stroke-miterlimit="10"/></g><g><path d=" M 1581.860107421875 232.3 L 1568.860107421875 250" fill="none" paint-order="fill stroke markers" stroke="#000000" stroke-dasharray="" stroke-miterlimit="10"/></g><g><path d=" M 1581.860107421875 232.3 L 1594.860107421875 250" fill="none" paint-order="fill stroke markers" stroke="#000000" stroke-dasharray="" stroke-miterlimit="10"/></g><g><g><path fill="none" stroke="none"/><text dominant-baseline="central" fill="#000000" font-family="Arial" font-size="13px" font-style="normal" font-weight="bold" stroke="none" text-anchor="middle" text-decoration="undefined" transform="matrix(1 0 0 1 -262 -20)" x="1844.360107421875" y="284.5">Коммерческий директор</text></g></g><g><path d=" M 1305.026455078125 341.85 C 1305.026455078125 336.96227952000004 1308.984257446125 333 1313.866455078125 333 C 1318.748652710125 333 1322.706455078125 336.96227952000004 1322.706455078125 341.85 C 1322.706455078125 346.73772048 1318.748652710125 350.7 1313.866455078125 350.7 C 1308.984257446125 350.7 1305.026455078125 346.73772048 1305.026455078125 341.85 Z" fill="#ffffff" paint-order="stroke fill markers" stroke="none"/></g><g><path d=" M 1305.026455078125 341.85 C 1305.026455078125 336.96227952000004 1308.984257446125 333 1313.866455078125 333 C 1318.748652710125 333 1322.706455078125 336.96227952000004 1322.706455078125 341.85 C 1322.706455078125 346.73772048 1318.748652710125 350.7 1313.866455078125 350.7 C 1308.984257446125 350.7 1305.026455078125 346.73772048 1305.026455078125 341.85 Z" fill="none" paint-order="fill stroke markers" stroke="#000000" stroke-dasharray="" stroke-miterlimit="10"/></g><g><path d=" M 1313.866455078125 350.7 L 1313.866455078125 368.3" fill="none" paint-order="fill stroke markers" stroke="#000000" stroke-dasharray="" stroke-miterlimit="10"/></g><g><path d=" M 1304.506455078125 357.3 L 1323.226455078125 357.3" fill="none" paint-order="fill stroke markers" stroke="#000000" stroke-dasharray="" stroke-miterlimit="10"/></g><g><path d=" M 1313.866455078125 368.3 L 1300.866455078125 386" fill="none" paint-order="fill stroke markers" stroke="#000000" stroke-dasharray="" stroke-miterlimit="10"/></g><g><path d=" M 1313.866455078125 368.3 L 1326.866455078125 386" fill="none" paint-order="fill stroke markers" stroke="#000000" stroke-dasharray="" stroke-miterlimit="10"/></g><g><g><path fill="none" stroke="none"/><text dominant-baseline="central" fill="#000000" font-family="Arial" font-size="13px" font-style="normal" font-weight="bold" stroke="none" text-anchor="middle" text-decoration="undefined" transform="matrix(1 0 0 1 -262 -20)" x="1576.366455078125" y="420.5">Партнер</text></g></g><g><path d=" M 753 316.5 C 753 306.835016 802.2486719999999 299 863 299 C 923.7513280000001 299 973 306.835016 973 316.5 C 973 326.164984 923.7513280000001 334 863 334 C 802.2486719999999 334 753 326.164984 753 316.5 Z" fill="#C0C0C0" fill-opacity="0.2" paint-order="stroke fill markers" stroke="none"/></g><g><path d=" M 746 309.5 C 746 299.835016 795.2486719999999 292 856 292 C 916.7513280000001 292 966 299.835016 966 309.5 C 966 319.164984 916.7513280000001 327 856 327 C 795.2486719999999 327 746 319.164984 746 309.5 Z" fill="#ffffff" paint-order="stroke fill markers" stroke="none"/></g><g><path d=" M 746 309.5 C 746 299.835016 795.2486719999999 292 856 292 C 916.7513280000001 292 966 299.835016 966 309.5 C 966 319.164984 916.7513280000001 327 856 327 C 795.2486719999999 327 746 319.164984 746 309.5 Z" fill="none" paint-order="fill stroke markers" stroke="#000000" stroke-dasharray="" stroke-miterlimit="10"/></g><g><g><path fill="none" stroke="none"/><text dominant-baseline="central" fill="#000000" font-family="Arial" font-size="13px" font-style="normal" font-weight="bold" stroke="none" text-anchor="middle" text-decoration="undefined" transform="matrix(1 0 0 1 -262 -20)" x="1118" y="330.5">Обработка заказа</text></g></g><g><path d=" M 737 676.5 C 737 666.835016 794.3075455999999 659 865 659 C 935.6924544000001 659 993 666.835016 993 676.5 C 993 686.164984 935.6924544000001 694 865 694 C 794.3075455999999 694 737 686.164984 737 676.5 Z" fill="#C0C0C0" fill-opacity="0.2" paint-order="stroke fill markers" stroke="none"/></g><g><path d=" M 730 669.5 C 730 659.835016 787.3075455999999 652 858 652 C 928.6924544000001 652 986 659.835016 986 669.5 C 986 679.164984 928.6924544000001 687 858 687 C 787.3075455999999 687 730 679.164984 730 669.5 Z" fill="#ffffff" paint-order="stroke fill markers" stroke="none"/></g><g><path d=" M 730 669.5 C 730 659.835016 787.3075455999999 652 858 652 C 928.6924544000001 652 986 659.835016 986 669.5 C 986 679.164984 928.6924544000001 687 858 687 C 787.3075455999999 687 730 679.164984 730 669.5 Z" fill="none" paint-order="fill stroke markers" stroke="#000000" stroke-dasharray="" stroke-miterlimit="10"/></g><g><g><path fill="none" stroke="none"/><text dominant-baseline="central" fill="#000000" font-family="Arial" font-size="13px" font-style="normal" font-weight="bold" stroke="none" text-anchor="middle" text-decoration="undefined" transform="matrix(1 0 0 1 -262 -20)" x="1120" y="690.5">Проведение консультации</text></g></g><g><path d=" M 705 532.5 C 705 522.835016 773.5004256 515 858 515 C 942.4995744 515 1011 522.835016 1011 532.5 C 1011 542.164984 942.4995744 550 858 550 C 773.5004256 550 705 542.164984 705 532.5 Z" fill="#C0C0C0" fill-opacity="0.2" paint-order="stroke fill markers" stroke="none"/></g><g><path d=" M 698 525.5 C 698 515.835016 766.5004256 508 851 508 C 935.4995744 508 1004 515.835016 1004 525.5 C 1004 535.164984 935.4995744 543 851 543 C 766.5004256 543 698 535.164984 698 525.5 Z" fill="#ffffff" paint-order="stroke fill markers" stroke="none"/></g><g><path d=" M 698 525.5 C 698 515.835016 766.5004256 508 851 508 C 935.4995744 508 1004 515.835016 1004 525.5 C 1004 535.164984 935.4995744 543 851 543 C 766.5004256 543 698 535.164984 698 525.5 Z" fill="none" paint-order="fill stroke markers" stroke="#000000" stroke-dasharray="" stroke-miterlimit="10"/></g><g><g><path fill="none" stroke="none"/><text dominant-baseline="central" fill="#000000" font-family="Arial" font-size="13px" font-style="normal" font-weight="bold" stroke="none" text-anchor="middle" text-decoration="undefined" transform="matrix(1 0 0 1 -262 -20)" x="1113" y="546.5">Презентовать новые коллекции</text></g></g><g><path d=" M 785 860.5 C 785 850.835016 855.9628591999999 843 943.5 843 C 1031.0371408 843 1102 850.835016 1102 860.5 C 1102 870.164984 1031.0371408 878 943.5 878 C 855.9628591999999 878 785 870.164984 785 860.5 Z" fill="#C0C0C0" fill-opacity="0.2" paint-order="stroke fill markers" stroke="none"/></g><g><path d=" M 778 853.5 C 778 843.835016 848.9628591999999 836 936.5 836 C 1024.0371408 836 1095 843.835016 1095 853.5 C 1095 863.164984 1024.0371408 871 936.5 871 C 848.9628591999999 871 778 863.164984 778 853.5 Z" fill="#ffffff" paint-order="stroke fill markers" stroke="none"/></g><g><path d=" M 778 853.5 C 778 843.835016 848.9628591999999 836 936.5 836 C 1024.0371408 836 1095 843.835016 1095 853.5 C 1095 863.164984 1024.0371408 871 936.5 871 C 848.9628591999999 871 778 863.164984 778 853.5 Z" fill="none" paint-order="fill stroke markers" stroke="#000000" stroke-dasharray="" stroke-miterlimit="10"/></g><g><g><path fill="none" stroke="none"/><text dominant-baseline="central" fill="#000000" font-family="Arial" font-size="13px" font-style="normal" font-weight="bold" stroke="none" text-anchor="middle" text-decoration="undefined" transform="matrix(1 0 0 1 -262 -20)" x="1198.5" y="874.5">Ознакомить с новыми моделями</text></g></g><g><path d=" M 185 636.5 C 185 626.835016 288.86992639999994 619 417 619 C 545.1300736000001 619 649 626.835016 649 636.5 C 649 646.164984 545.1300736000001 654 417 654 C 288.86992639999994 654 185 646.164984 185 636.5 Z" fill="#C0C0C0" fill-opacity="0.2" paint-order="stroke fill markers" stroke="none"/></g><g><path d=" M 178 629.5 C 178 619.835016 281.86992639999994 612 410 612 C 538.1300736000001 612 642 619.835016 642 629.5 C 642 639.164984 538.1300736000001 647 410 647 C 281.86992639999994 647 178 639.164984 178 629.5 Z" fill="#ffffff" paint-order="stroke fill markers" stroke="none"/></g><g><path d=" M 178 629.5 C 178 619.835016 281.86992639999994 612 410 612 C 538.1300736000001 612 642 619.835016 642 629.5 C 642 639.164984 538.1300736000001 647 410 647 C 281.86992639999994 647 178 639.164984 178 629.5 Z" fill="none" paint-order="fill stroke markers" stroke="#000000" stroke-dasharray="" stroke-miterlimit="10"/></g><g><g><path fill="none" stroke="none"/><text dominant-baseline="central" fill="#000000" font-family="Arial" font-size="13px" font-style="normal" font-weight="bold" stroke="none" text-anchor="middle" text-decoration="undefined" transform="matrix(1 0 0 1 -262 -20)" x="672" y="650.5">Ознакомить с разделением товаров на сегменты</text></g></g><g><path d=" M 425 780.5 C 425 770.835016 517.4531888 763 631.5 763 C 745.5468112 763 838 770.835016 838 780.5 C 838 790.164984 745.5468112 798 631.5 798 C 517.4531888 798 425 790.164984 425 780.5 Z" fill="#C0C0C0" fill-opacity="0.2" paint-order="stroke fill markers" stroke="none"/></g><g><path d=" M 418 773.5 C 418 763.835016 510.4531888 756 624.5 756 C 738.5468112 756 831 763.835016 831 773.5 C 831 783.164984 738.5468112 791 624.5 791 C 510.4531888 791 418 783.164984 418 773.5 Z" fill="#ffffff" paint-order="stroke fill markers" stroke="none"/></g><g><path d=" M 418 773.5 C 418 763.835016 510.4531888 756 624.5 756 C 738.5468112 756 831 763.835016 831 773.5 C 831 783.164984 738.5468112 791 624.5 791 C 510.4531888 791 418 783.164984 418 773.5 Z" fill="none" paint-order="fill stroke markers" stroke="#000000" stroke-dasharray="" stroke-miterlimit="10"/></g><g><g><path fill="none" stroke="none"/><text dominant-baseline="central" fill="#000000" font-family="Arial" font-size="13px" font-style="normal" font-weight="bold" stroke="none" text-anchor="middle" text-decoration="undefined" transform="matrix(1 0 0 1 -262 -20)" x="886.5" y="794.5">Ознакомить с целевой аудиторией товаров</text></g></g><g><path d=" M 977 764.5 C 977 754.835016 1088.4810848 747 1226 747 C 1363.5189152 747 1475 754.835016 1475 764.5 C 1475 774.164984 1363.5189152 782 1226 782 C 1088.4810848 782 977 774.164984 977 764.5 Z" fill="#C0C0C0" fill-opacity="0.2" paint-order="stroke fill markers" stroke="none"/></g><g><path d=" M 970 757.5 C 970 747.835016 1081.4810848 740 1219 740 C 1356.5189152 740 1468 747.835016 1468 757.5 C 1468 767.164984 1356.5189152 775 1219 775 C 1081.4810848 775 970 767.164984 970 757.5 Z" fill="#ffffff" paint-order="stroke fill markers" stroke="none"/></g><g><path d=" M 970 757.5 C 970 747.835016 1081.4810848 740 1219 740 C 1356.5189152 740 1468 747.835016 1468 757.5 C 1468 767.164984 1356.5189152 775 1219 775 C 1081.4810848 775 970 767.164984 970 757.5 Z" fill="none" paint-order="fill stroke markers" stroke="#000000" stroke-dasharray="" stroke-miterlimit="10"/></g><g><g><path fill="none" stroke="none"/><text dominant-baseline="central" fill="#000000" font-family="Arial" font-size="13px" font-style="normal" font-weight="bold" stroke="none" text-anchor="middle" text-decoration="undefined" transform="matrix(1 0 0 1 -262 -20)" x="1481" y="778.5">Ознакомить с ограничениями на нектороые позиции</text></g></g><g><path d=" M 1057 564.5 C 1057 554.835016 1153.7064832 547 1273 547 C 1392.2935168 547 1489 554.835016 1489 564.5 C 1489 574.164984 1392.2935168 582 1273 582 C 1153.7064832 582 1057 574.164984 1057 564.5 Z" fill="#C0C0C0" fill-opacity="0.2" paint-order="stroke fill markers" stroke="none"/></g><g><path d=" M 1050 557.5 C 1050 547.835016 1146.7064832 540 1266 540 C 1385.2935168 540 1482 547.835016 1482 557.5 C 1482 567.164984 1385.2935168 575 1266 575 C 1146.7064832 575 1050 567.164984 1050 557.5 Z" fill="#ffffff" paint-order="stroke fill markers" stroke="none"/></g><g><path d=" M 1050 557.5 C 1050 547.835016 1146.7064832 540 1266 540 C 1385.2935168 540 1482 547.835016 1482 557.5 C 1482 567.164984 1385.2935168 575 1266 575 C 1146.7064832 575 1050 567.164984 1050 557.5 Z" fill="none" paint-order="fill stroke markers" stroke="#000000" stroke-dasharray="" stroke-miterlimit="10"/></g><g><g><path fill="none" stroke="none"/><text dominant-baseline="central" fill="#000000" font-family="Arial" font-size="13px" font-style="normal" font-weight="bold" stroke="none" text-anchor="middle" text-decoration="undefined" transform="matrix(1 0 0 1 -262 -20)" x="1528" y="578.5">Дать рекомендации по популярным моделям</text></g></g><g><path d=" M 857 651 L 852 544" fill="none" paint-order="fill stroke markers" stroke="#000000" stroke-dasharray="3" stroke-miterlimit="10"/></g><g><path d=" M 856.6793030347676 553.9551053790914 L 852 544 L 848.2694443861287 554.3480894280932" fill="none" paint-order="fill stroke markers" stroke="#000000" stroke-dasharray="" stroke-miterlimit="10"/></g><g><rect fill="#ffffff" height="13" stroke="none" transform="matrix(1 0 0 1 -262 -20)" width="55.65625" x="1059" y="612"/></g><g><g><path fill="none" stroke="none"/><text dominant-baseline="central" fill="#000000" font-family="Arial" font-size="13px" font-style="normal" font-weight="normal" stroke="none" text-anchor="middle" text-decoration="undefined" transform="matrix(1 0 0 1 -262 -20)" x="1086.828125" y="618.5">«include»</text></g></g><g><path d=" M 729 657 L 623 648" fill="none" paint-order="fill stroke markers" stroke="#000000" stroke-dasharray="3" stroke-miterlimit="10"/></g><g><path d=" M 633.4823710380888 644.6653489808023 L 623 648 L 632.7701099925114 653.0542012953807" fill="none" paint-order="fill stroke markers" stroke="#000000" stroke-dasharray="" stroke-miterlimit="10"/></g><g><rect fill="#ffffff" height="13" stroke="none" transform="matrix(1 0 0 1 -262 -20)" width="55.65625" x="908" y="695"/></g><g><g><path fill="none" stroke="none"/><text dominant-baseline="central" fill="#000000" font-family="Arial" font-size="13px" font-style="normal" font-weight="normal" stroke="none" text-anchor="middle" text-decoration="undefined" transform="matrix(1 0 0 1 -262 -20)" x="935.828125" y="701.5">«include»</text></g></g><g><path d=" M 815 688 L 665 755" fill="none" paint-order="fill stroke markers" stroke="#000000" stroke-dasharray="3" stroke-miterlimit="10"/></g><g><path d=" M 672.562324351823 747.0118055608402 L 665 755 L 675.9958772880728 754.6988643733397" fill="none" paint-order="fill stroke markers" stroke="#000000" stroke-dasharray="" stroke-miterlimit="10"/></g><g><rect fill="#ffffff" height="13" stroke="none" transform="matrix(1 0 0 1 -262 -20)" width="55.65625" x="987" y="762"/></g><g><g><path fill="none" stroke="none"/><text dominant-baseline="central" fill="#000000" font-family="Arial" font-size="13px" font-style="normal" font-weight="normal" stroke="none" text-anchor="middle" text-decoration="undefined" transform="matrix(1 0 0 1 -262 -20)" x="1014.828125" y="768.5">«include»</text></g></g><g><path d=" M 866 688 L 928 835" fill="none" paint-order="fill stroke markers" stroke="#000000" stroke-dasharray="3" stroke-miterlimit="10"/></g><g><path d=" M 920.1719616654655 827.2720108803741 L 928 835 L 927.9292545216856 824.000227498839" fill="none" paint-order="fill stroke markers" stroke="#000000" stroke-dasharray="" stroke-miterlimit="10"/></g><g><rect fill="#ffffff" height="13" stroke="none" transform="matrix(1 0 0 1 -262 -20)" width="55.65625" x="1159" y="763"/></g><g><g><path fill="none" stroke="none"/><text dominant-baseline="central" fill="#000000" font-family="Arial" font-size="13px" font-style="normal" font-weight="normal" stroke="none" text-anchor="middle" text-decoration="undefined" transform="matrix(1 0 0 1 -262 -20)" x="1186.828125" y="769.5">«include»</text></g></g><g><path d=" M 936 688 L 1145 739" fill="none" paint-order="fill stroke markers" stroke="#000000" stroke-dasharray="3" stroke-miterlimit="10"/></g><g><path d=" M 1134.1290982871974 740.6803261441122 L 1145 739 L 1136.124941670158 732.5012816923717" fill="none" paint-order="fill stroke markers" stroke="#000000" stroke-dasharray="" stroke-miterlimit="10"/></g><g><rect fill="#ffffff" height="13" stroke="none" transform="matrix(1 0 0 1 -262 -20)" width="55.65625" x="1282" y="697"/></g><g><g><path fill="none" stroke="none"/><text dominant-baseline="central" fill="#000000" font-family="Arial" font-size="13px" font-style="normal" font-weight="normal" stroke="none" text-anchor="middle" text-decoration="undefined" transform="matrix(1 0 0 1 -262 -20)" x="1309.828125" y="703.5">«include»</text></g></g><g><path d=" M 924 651 L 1197 576" fill="none" paint-order="fill stroke markers" stroke="#000000" stroke-dasharray="3" stroke-miterlimit="10"/></g><g><path d=" M 1188.315550261818 582.7513208148474 L 1197 576 L 1186.0852619691134 574.6330714294022" fill="none" paint-order="fill stroke markers" stroke="#000000" stroke-dasharray="" stroke-miterlimit="10"/></g><g><rect fill="#ffffff" height="13" stroke="none" transform="matrix(1 0 0 1 -262 -20)" width="55.65625" x="1256" y="607"/></g><g><g><path fill="none" stroke="none"/><text dominant-baseline="central" fill="#000000" font-family="Arial" font-size="13px" font-style="normal" font-weight="normal" stroke="none" text-anchor="middle" text-decoration="undefined" transform="matrix(1 0 0 1 -262 -20)" x="1283.828125" y="613.5">«include»</text></g></g><g><path d=" M 490 469 L 825 651" fill="none" paint-order="fill stroke markers" stroke="#000000" stroke-dasharray="" stroke-miterlimit="10"/></g><g><path d=" M 814.0605506287625 649.8474170510851 L 825 651 L 818.0796403862087 642.4496419480932" fill="none" paint-order="fill stroke markers" stroke="#000000" stroke-dasharray="" stroke-miterlimit="10"/></g><g><path d=" M 886 651 L 1281 393" fill="none" paint-order="fill stroke markers" stroke="#000000" stroke-dasharray="" stroke-miterlimit="10"/></g><g><path d=" M 681 220.5 C 681 210.835016 760.0217328 203 857.5 203 C 954.9782672000001 203 1034 210.835016 1034 220.5 C 1034 230.164984 954.9782672000001 238 857.5 238 C 760.0217328 238 681 230.164984 681 220.5 Z" fill="#C0C0C0" fill-opacity="0.2" paint-order="stroke fill markers" stroke="none"/></g><g><path d=" M 674 213.5 C 674 203.835016 753.0217328 196 850.5 196 C 947.9782672000001 196 1027 203.835016 1027 213.5 C 1027 223.164984 947.9782672000001 231 850.5 231 C 753.0217328 231 674 223.164984 674 213.5 Z" fill="#ffffff" paint-order="stroke fill markers" stroke="none"/></g><g><path d=" M 674 213.5 C 674 203.835016 753.0217328 196 850.5 196 C 947.9782672000001 196 1027 203.835016 1027 213.5 C 1027 223.164984 947.9782672000001 231 850.5 231 C 753.0217328 231 674 223.164984 674 213.5 Z" fill="none" paint-order="fill stroke markers" stroke="#000000" stroke-dasharray="" stroke-miterlimit="10"/></g><g><g><path fill="none" stroke="none"/><text dominant-baseline="central" fill="#000000" font-family="Arial" font-size="13px" font-style="normal" font-weight="bold" stroke="none" text-anchor="middle" text-decoration="undefined" transform="matrix(1 0 0 1 -262 -20)" x="1112.5" y="234.5">Согласовать изменения с партнером</text></g></g><g><path d=" M 977 132.5 C 977 122.835016 1026.248672 115 1087 115 C 1147.751328 115 1197 122.835016 1197 132.5 C 1197 142.164984 1147.751328 150 1087 150 C 1026.248672 150 977 142.164984 977 132.5 Z" fill="#C0C0C0" fill-opacity="0.2" paint-order="stroke fill markers" stroke="none"/></g><g><path d=" M 970 125.5 C 970 115.835016 1019.2486719999999 108 1080 108 C 1140.751328 108 1190 115.835016 1190 125.5 C 1190 135.164984 1140.751328 143 1080 143 C 1019.2486719999999 143 970 135.164984 970 125.5 Z" fill="#ffffff" paint-order="stroke fill markers" stroke="none"/></g><g><path d=" M 970 125.5 C 970 115.835016 1019.2486719999999 108 1080 108 C 1140.751328 108 1190 115.835016 1190 125.5 C 1190 135.164984 1140.751328 143 1080 143 C 1019.2486719999999 143 970 135.164984 970 125.5 Z" fill="none" paint-order="fill stroke markers" stroke="#000000" stroke-dasharray="" stroke-miterlimit="10"/></g><g><g><path fill="none" stroke="none"/><text dominant-baseline="central" fill="#000000" font-family="Arial" font-size="13px" font-style="normal" font-weight="bold" stroke="none" text-anchor="middle" text-decoration="undefined" transform="matrix(1 0 0 1 -262 -20)" x="1342" y="146.5">Внести корректировки</text></g></g><g><path d=" M 1030 144 L 897 195" fill="none" paint-order="fill stroke markers" stroke="#000000" stroke-dasharray="3" stroke-miterlimit="10"/></g><g><path d=" M 904.981793290113 187.4309197471617 L 897 195 L 907.9961281355954 195.29183218734107" fill="none" paint-order="fill stroke markers" stroke="#000000" stroke-dasharray="" stroke-miterlimit="10"/></g><g><rect fill="#ffffff" height="13" stroke="none" transform="matrix(1 0 0 1 -262 -20)" width="53.49169921875" x="1246" y="190"/></g><g><g><path fill="none" stroke="none"/><text dominant-baseline="central" fill="#000000" font-family="Arial" font-size="13px" font-style="normal" font-weight="normal" stroke="none" text-anchor="middle" text-decoration="undefined" transform="matrix(1 0 0 1 -262 -20)" x="1272.745849609375" y="196.5">«extend»</text></g></g><g><path d=" M 534 396 L 786 328" fill="none" paint-order="fill stroke markers" stroke="#000000" stroke-dasharray="" stroke-miterlimit="10"/></g><g><path d=" M 777.2849425627278 334.7117638415731 L 786 328 L 775.0915900615755 326.5834575137736" fill="none" paint-order="fill stroke markers" stroke="#000000" stroke-dasharray="" stroke-miterlimit="10"/></g><g><path d=" M 1281 361 L 905 232" fill="none" paint-order="fill stroke markers" stroke="#000000" stroke-dasharray="" stroke-miterlimit="10"/></g><g><path d=" M 915.9787297735738 231.3162657249754 L 905 232 L 913.2466074141082 239.27966112930915" fill="none" paint-order="fill stroke markers" stroke="#000000" stroke-dasharray="" stroke-miterlimit="10"/></g><g><path d=" M 855 291 L 851 232" fill="none" paint-order="fill stroke markers" stroke="#000000" stroke-dasharray="3" stroke-miterlimit="10"/></g><g><path d=" M 855.8872936084422 241.85466190109435 L 851 232 L 847.4875401956147 242.42413670874367" fill="none" paint-order="fill stroke markers" stroke="#000000" stroke-dasharray="" stroke-miterlimit="10"/></g><g><rect fill="#ffffff" height="13" stroke="none" transform="matrix(1 0 0 1 -262 -20)" width="55.65625" x="1058" y="277"/></g><g><g><path fill="none" stroke="none"/><text dominant-baseline="central" fill="#000000" font-family="Arial" font-size="13px" font-style="normal" font-weight="normal" stroke="none" text-anchor="middle" text-decoration="undefined" transform="matrix(1 0 0 1 -262 -20)" x="1085.828125" y="283.5">«include»</text></g></g><g><path d=" M 225 140.5 C 225 130.835016 357.29984160000004 123 520.5 123 C 683.7001584 123 816 130.835016 816 140.5 C 816 150.164984 683.7001584 158 520.5 158 C 357.29984160000004 158 225 150.164984 225 140.5 Z" fill="#C0C0C0" fill-opacity="0.2" paint-order="stroke fill markers" stroke="none"/></g><g><path d=" M 218 133.5 C 218 123.835016 350.29984160000004 116 513.5 116 C 676.7001584 116 809 123.835016 809 133.5 C 809 143.164984 676.7001584 151 513.5 151 C 350.29984160000004 151 218 143.164984 218 133.5 Z" fill="#ffffff" paint-order="stroke fill markers" stroke="none"/></g><g><path d=" M 218 133.5 C 218 123.835016 350.29984160000004 116 513.5 116 C 676.7001584 116 809 123.835016 809 133.5 C 809 143.164984 676.7001584 151 513.5 151 C 350.29984160000004 151 218 143.164984 218 133.5 Z" fill="none" paint-order="fill stroke markers" stroke="#000000" stroke-dasharray="" stroke-miterlimit="10"/></g><g><g><path fill="none" stroke="none"/><text dominant-baseline="central" fill="#000000" font-family="Arial" font-size="13px" font-style="normal" font-weight="bold" stroke="none" text-anchor="middle" text-decoration="undefined" transform="matrix(1 0 0 1 -262 -20)" x="775.5" y="154.5">Отправить материнской компании запрос на одобрение заказа</text></g></g><g><path d=" M 361 60.5 C 361 50.835015999999996 417.85983039999996 43 488 43 C 558.1401696 43 615 50.835015999999996 615 60.5 C 615 70.164984 558.1401696 78 488 78 C 417.85983039999996 78 361 70.164984 361 60.5 Z" fill="#C0C0C0" fill-opacity="0.2" paint-order="stroke fill markers" stroke="none"/></g><g><path d=" M 354 53.5 C 354 43.835015999999996 410.85983039999996 36 481 36 C 551.1401696 36 608 43.835015999999996 608 53.5 C 608 63.164984000000004 551.1401696 71 481 71 C 410.85983039999996 71 354 63.164984000000004 354 53.5 Z" fill="#ffffff" paint-order="stroke fill markers" stroke="none"/></g><g><path d=" M 354 53.5 C 354 43.835015999999996 410.85983039999996 36 481 36 C 551.1401696 36 608 43.835015999999996 608 53.5 C 608 63.164984000000004 551.1401696 71 481 71 C 410.85983039999996 71 354 63.164984000000004 354 53.5 Z" fill="none" paint-order="fill stroke markers" stroke="#000000" stroke-dasharray="" stroke-miterlimit="10"/></g><g><g><path fill="none" stroke="none"/><text dominant-baseline="central" fill="#000000" font-family="Arial" font-size="13px" font-style="normal" font-weight="bold" stroke="none" text-anchor="middle" text-decoration="undefined" transform="matrix(1 0 0 1 -262 -20)" x="743" y="74.5">Расчитать сроки доставки</text></g></g><g><path d=" M 865 44.5 C 865 34.835015999999996 972.8993631999999 27 1106 27 C 1239.1006368 27 1347 34.835015999999996 1347 44.5 C 1347 54.164984000000004 1239.1006368 62 1106 62 C 972.8993631999999 62 865 54.164984000000004 865 44.5 Z" fill="#C0C0C0" fill-opacity="0.2" paint-order="stroke fill markers" stroke="none"/></g><g><path d=" M 858 37.5 C 858 27.835015999999996 965.8993631999999 20 1099 20 C 1232.1006368 20 1340 27.835015999999996 1340 37.5 C 1340 47.164984000000004 1232.1006368 55 1099 55 C 965.8993631999999 55 858 47.164984000000004 858 37.5 Z" fill="#ffffff" paint-order="stroke fill markers" stroke="none"/></g><g><path d=" M 858 37.5 C 858 27.835015999999996 965.8993631999999 20 1099 20 C 1232.1006368 20 1340 27.835015999999996 1340 37.5 C 1340 47.164984000000004 1232.1006368 55 1099 55 C 965.8993631999999 55 858 47.164984000000004 858 37.5 Z" fill="none" paint-order="fill stroke markers" stroke="#000000" stroke-dasharray="" stroke-miterlimit="10"/></g><g><g><path fill="none" stroke="none"/><text dominant-baseline="central" fill="#000000" font-family="Arial" font-size="13px" font-style="normal" font-weight="bold" stroke="none" text-anchor="middle" text-decoration="undefined" transform="matrix(1 0 0 1 -262 -20)" x="1361" y="58.5">Сформировать приложение к рамочному договору</text></g></g><g><path d=" M 609 50 L 857 43" fill="none" paint-order="fill stroke markers" stroke="#000000" stroke-dasharray="3" stroke-miterlimit="10"/></g><g><path d=" M 846.9601407381699 47.49457739978362 L 857 43 L 846.7226012758467 39.07889359175623" fill="none" paint-order="fill stroke markers" stroke="#000000" stroke-dasharray="" stroke-miterlimit="10"/></g><g><rect fill="#ffffff" height="13" stroke="none" transform="matrix(1 0 0 1 -262 -20)" width="55.65625" x="967" y="30"/></g><g><g><path fill="none" stroke="none"/><text dominant-baseline="central" fill="#000000" font-family="Arial" font-size="13px" font-style="normal" font-weight="normal" stroke="none" text-anchor="middle" text-decoration="undefined" transform="matrix(1 0 0 1 -262 -20)" x="994.828125" y="36.5">«include»</text></g></g><g><path d=" M 506 115 L 489 72" fill="none" paint-order="fill stroke markers" stroke="#000000" stroke-dasharray="3" stroke-miterlimit="10"/></g><g><path d=" M 496.6510839151632 79.90322180652495 L 489 72 L 488.82171158722406 82.99855505245438" fill="none" paint-order="fill stroke markers" stroke="#000000" stroke-dasharray="" stroke-miterlimit="10"/></g><g><rect fill="#ffffff" height="13" stroke="none" transform="matrix(1 0 0 1 -262 -20)" width="55.65625" x="703" y="117"/></g><g><g><path fill="none" stroke="none"/><text dominant-baseline="central" fill="#000000" font-family="Arial" font-size="13px" font-style="normal" font-weight="normal" stroke="none" text-anchor="middle" text-decoration="undefined" transform="matrix(1 0 0 1 -262 -20)" x="730.828125" y="123.5">«include»</text></g></g><g><path d=" M 774 195 L 593 152" fill="none" paint-order="fill stroke markers" stroke="#000000" stroke-dasharray="3" stroke-miterlimit="10"/></g><g><path d=" M 603.8604555229007 150.25343026617975 L 593 152 L 601.9145130496174 158.44449044441845" fill="none" paint-order="fill stroke markers" stroke="#000000" stroke-dasharray="" stroke-miterlimit="10"/></g><g><rect fill="#ffffff" height="13" stroke="none" transform="matrix(1 0 0 1 -262 -20)" width="53.49169921875" x="896" y="200"/></g><g><g><path fill="none" stroke="none"/><text dominant-baseline="central" fill="#000000" font-family="Arial" font-size="13px" font-style="normal" font-weight="normal" stroke="none" text-anchor="middle" text-decoration="undefined" transform="matrix(1 0 0 1 -262 -20)" x="922.745849609375" y="206.5">«extend»</text></g></g><g><path d=" M 1201 212.5 C 1201 202.835016 1252.487248 195 1316 195 C 1379.512752 195 1431 202.835016 1431 212.5 C 1431 222.164984 1379.512752 230 1316 230 C 1252.487248 230 1201 222.164984 1201 212.5 Z" fill="#C0C0C0" fill-opacity="0.2" paint-order="stroke fill markers" stroke="none"/></g><g><path d=" M 1194 205.5 C 1194 195.835016 1245.487248 188 1309 188 C 1372.512752 188 1424 195.835016 1424 205.5 C 1424 215.164984 1372.512752 223 1309 223 C 1245.487248 223 1194 215.164984 1194 205.5 Z" fill="#ffffff" paint-order="stroke fill markers" stroke="none"/></g><g><path d=" M 1194 205.5 C 1194 195.835016 1245.487248 188 1309 188 C 1372.512752 188 1424 195.835016 1424 205.5 C 1424 215.164984 1372.512752 223 1309 223 C 1245.487248 223 1194 215.164984 1194 205.5 Z" fill="none" paint-order="fill stroke markers" stroke="#000000" stroke-dasharray="" stroke-miterlimit="10"/></g><g><g><path fill="none" stroke="none"/><text dominant-baseline="central" fill="#000000" font-family="Arial" font-size="13px" font-style="normal" font-weight="bold" stroke="none" text-anchor="middle" text-decoration="undefined" transform="matrix(1 0 0 1 -262 -20)" x="1571" y="226.5">Подписать приложение</text></g></g><g><path d=" M 1123 56 L 1287 187" fill="none" paint-order="fill stroke markers" stroke="#000000" stroke-dasharray="3" stroke-miterlimit="10"/></g><g><path d=" M 1276.4323443180704 183.94637045662364 L 1287 187 L 1281.686781163416 177.36829684871003" fill="none" paint-order="fill stroke markers" stroke="#000000" stroke-dasharray="" stroke-miterlimit="10"/></g><g><rect fill="#ffffff" height="13" stroke="none" transform="matrix(1 0 0 1 -262 -20)" width="55.65625" x="1458" y="111"/></g><g><g><path fill="none" stroke="none"/><text dominant-baseline="central" fill="#000000" font-family="Arial" font-size="13px" font-style="normal" font-weight="normal" stroke="none" text-anchor="middle" text-decoration="undefined" transform="matrix(1 0 0 1 -262 -20)" x="1485.828125" y="117.5">«include»</text></g></g><g><path d=" M 1497 226 L 1425 218" fill="none" paint-order="fill stroke markers" stroke="#000000" stroke-dasharray="" stroke-miterlimit="10"/></g><g><path d=" M 1435.5653807116053 214.93850846500584 L 1425 218 L 1434.6356537719332 223.306050922054" fill="none" paint-order="fill stroke markers" stroke="#000000" stroke-dasharray="" stroke-miterlimit="10"/></g><g><path d=" M 1312 331 L 1309 224" fill="none" paint-order="fill stroke markers" stroke="#000000" stroke-dasharray="" stroke-miterlimit="10"/></g><g><path d=" M 1313.4926870729037 234.0407052971873 L 1309 224 L 1305.0769586914626 234.27666029853611" fill="none" paint-order="fill stroke markers" stroke="#000000" stroke-dasharray="" stroke-miterlimit="10"/></g><g><path d=" M 409 956.5 C 409 946.835016 474.81413440000006 939 556 939 C 637.1858655999999 939 703 946.835016 703 956.5 C 703 966.164984 637.1858655999999 974 556 974 C 474.81413440000006 974 409 966.164984 409 956.5 Z" fill="#C0C0C0" fill-opacity="0.2" paint-order="stroke fill markers" stroke="none"/></g><g><path d=" M 402 949.5 C 402 939.835016 467.81413440000006 932 549 932 C 630.1858655999999 932 696 939.835016 696 949.5 C 696 959.164984 630.1858655999999 967 549 967 C 467.81413440000006 967 402 959.164984 402 949.5 Z" fill="#ffffff" paint-order="stroke fill markers" stroke="none"/></g><g><path d=" M 402 949.5 C 402 939.835016 467.81413440000006 932 549 932 C 630.1858655999999 932 696 939.835016 696 949.5 C 696 959.164984 630.1858655999999 967 549 967 C 467.81413440000006 967 402 959.164984 402 949.5 Z" fill="none" paint-order="fill stroke markers" stroke="#000000" stroke-dasharray="" stroke-miterlimit="10"/></g><g><g><path fill="none" stroke="none"/><text dominant-baseline="central" fill="#000000" font-family="Arial" font-size="13px" font-style="normal" font-weight="bold" stroke="none" text-anchor="middle" text-decoration="undefined" transform="matrix(1 0 0 1 -262 -20)" x="811" y="970.5">Сформировать счёт на оплату</text></g></g><g><path d=" M 489 1068.5 C 489 1058.835016 545.6359728 1051 615.5 1051 C 685.3640272 1051 742 1058.835016 742 1068.5 C 742 1078.164984 685.3640272 1086 615.5 1086 C 545.6359728 1086 489 1078.164984 489 1068.5 Z" fill="#C0C0C0" fill-opacity="0.2" paint-order="stroke fill markers" stroke="none"/></g><g><path d=" M 482 1061.5 C 482 1051.835016 538.6359728 1044 608.5 1044 C 678.3640272 1044 735 1051.835016 735 1061.5 C 735 1071.164984 678.3640272 1079 608.5 1079 C 538.6359728 1079 482 1071.164984 482 1061.5 Z" fill="#ffffff" paint-order="stroke fill markers" stroke="none"/></g><g><path d=" M 482 1061.5 C 482 1051.835016 538.6359728 1044 608.5 1044 C 678.3640272 1044 735 1051.835016 735 1061.5 C 735 1071.164984 678.3640272 1079 608.5 1079 C 538.6359728 1079 482 1071.164984 482 1061.5 Z" fill="none" paint-order="fill stroke markers" stroke="#000000" stroke-dasharray="" stroke-miterlimit="10"/></g><g><g><path fill="none" stroke="none"/><text dominant-baseline="central" fill="#000000" font-family="Arial" font-size="13px" font-style="normal" font-weight="bold" stroke="none" text-anchor="middle" text-decoration="undefined" transform="matrix(1 0 0 1 -262 -20)" x="870.5" y="1082.5">Отправить счёт на оплату</text></g></g><g><path d=" M 697 1164.5 C 697 1154.835016 742.4430928 1147 798.5 1147 C 854.5569072000001 1147 900 1154.835016 900 1164.5 C 900 1174.164984 854.5569072000001 1182 798.5 1182 C 742.4430928 1182 697 1174.164984 697 1164.5 Z" fill="#C0C0C0" fill-opacity="0.2" paint-order="stroke fill markers" stroke="none"/></g><g><path d=" M 690 1157.5 C 690 1147.835016 735.4430928 1140 791.5 1140 C 847.5569072000001 1140 893 1147.835016 893 1157.5 C 893 1167.164984 847.5569072000001 1175 791.5 1175 C 735.4430928 1175 690 1167.164984 690 1157.5 Z" fill="#ffffff" paint-order="stroke fill markers" stroke="none"/></g><g><path d=" M 690 1157.5 C 690 1147.835016 735.4430928 1140 791.5 1140 C 847.5569072000001 1140 893 1147.835016 893 1157.5 C 893 1167.164984 847.5569072000001 1175 791.5 1175 C 735.4430928 1175 690 1167.164984 690 1157.5 Z" fill="none" paint-order="fill stroke markers" stroke="#000000" stroke-dasharray="" stroke-miterlimit="10"/></g><g><g><path fill="none" stroke="none"/><text dominant-baseline="central" fill="#000000" font-family="Arial" font-size="13px" font-style="normal" font-weight="bold" stroke="none" text-anchor="middle" text-decoration="undefined" transform="matrix(1 0 0 1 -262 -20)" x="1053.5" y="1178.5">Подтвердить оплату</text></g></g><g><path d=" M 929 1092.5 C 929 1082.835016 1014.5136032 1075 1120 1075 C 1225.4863968 1075 1311 1082.835016 1311 1092.5 C 1311 1102.164984 1225.4863968 1110 1120 1110 C 1014.5136032 1110 929 1102.164984 929 1092.5 Z" fill="#C0C0C0" fill-opacity="0.2" paint-order="stroke fill markers" stroke="none"/></g><g><path d=" M 922 1085.5 C 922 1075.835016 1007.5136032 1068 1113 1068 C 1218.4863968 1068 1304 1075.835016 1304 1085.5 C 1304 1095.164984 1218.4863968 1103 1113 1103 C 1007.5136032 1103 922 1095.164984 922 1085.5 Z" fill="#ffffff" paint-order="stroke fill markers" stroke="none"/></g><g><path d=" M 922 1085.5 C 922 1075.835016 1007.5136032 1068 1113 1068 C 1218.4863968 1068 1304 1075.835016 1304 1085.5 C 1304 1095.164984 1218.4863968 1103 1113 1103 C 1007.5136032 1103 922 1095.164984 922 1085.5 Z" fill="none" paint-order="fill stroke markers" stroke="#000000" stroke-dasharray="" stroke-miterlimit="10"/></g><g><g><path fill="none" stroke="none"/><text dominant-baseline="central" fill="#000000" font-family="Arial" font-size="13px" font-style="normal" font-weight="bold" stroke="none" text-anchor="middle" text-decoration="undefined" transform="matrix(1 0 0 1 -262 -20)" x="1375" y="1106.5">Отправить заказ материнской компании</text></g></g><g><path d=" M 872 1139 L 1028 1104" fill="none" paint-order="fill stroke markers" stroke="#000000" stroke-dasharray="3" stroke-miterlimit="10"/></g><g><path d=" M 1019.0053700332487 1110.3321901235845 L 1028 1104 L 1017.1623015800974 1102.1173707323956" fill="none" paint-order="fill stroke markers" stroke="#000000" stroke-dasharray="" stroke-miterlimit="10"/></g><g><rect fill="#ffffff" height="13" stroke="none" transform="matrix(1 0 0 1 -262 -20)" width="55.65625" x="1144" y="1119"/></g><g><g><path fill="none" stroke="none"/><text dominant-baseline="central" fill="#000000" font-family="Arial" font-size="13px" font-style="normal" font-weight="normal" stroke="none" text-anchor="middle" text-decoration="undefined" transform="matrix(1 0 0 1 -262 -20)" x="1171.828125" y="1125.5">«include»</text></g></g><g><path d=" M 757 1139 L 644 1080" fill="none" paint-order="fill stroke markers" stroke="#000000" stroke-dasharray="3" stroke-miterlimit="10"/></g><g><path d=" M 654.9569598844882 1080.9721265811177 L 644 1080 L 651.0603433378307 1088.4351379331906" fill="none" paint-order="fill stroke markers" stroke="#000000" stroke-dasharray="" stroke-miterlimit="10"/></g><g><rect fill="#ffffff" height="13" stroke="none" transform="matrix(1 0 0 1 -262 -20)" width="53.49169921875" x="896" y="1136"/></g><g><g><path fill="none" stroke="none"/><text dominant-baseline="central" fill="#000000" font-family="Arial" font-size="13px" font-style="normal" font-weight="normal" stroke="none" text-anchor="middle" text-decoration="undefined" transform="matrix(1 0 0 1 -262 -20)" x="922.745849609375" y="1142.5">«extend»</text></g></g><g><path d=" M 559 968 L 599 1043" fill="none" paint-order="fill stroke markers" stroke="#000000" stroke-dasharray="3" stroke-miterlimit="10"/></g><g><path d=" M 590.5032843999275 1036.013883481398 L 599 1043 L 597.931845145838 1032.0519844169123" fill="none" paint-order="fill stroke markers" stroke="#000000" stroke-dasharray="" stroke-miterlimit="10"/></g><g><rect fill="#ffffff" height="13" stroke="none" transform="matrix(1 0 0 1 -262 -20)" width="55.65625" x="840" y="1005"/></g><g><g><path fill="none" stroke="none"/><text dominant-baseline="central" fill="#000000" font-family="Arial" font-size="13px" font-style="normal" font-weight="normal" stroke="none" text-anchor="middle" text-decoration="undefined" transform="matrix(1 0 0 1 -262 -20)" x="867.828125" y="1011.5">«include»</text></g></g><g><path d=" M 359 469 L 130 636 L 138 852 L 473 931" fill="none" paint-order="fill stroke markers" stroke="#000000" stroke-dasharray="" stroke-miterlimit="10"/></g><g><path d=" M 462.14245066469425 932.7645459561605 L 473 931 L 464.07483082662145 924.5702756492542" fill="none" paint-order="fill stroke markers" stroke="#000000" stroke-dasharray="" stroke-miterlimit="10"/></g><g><path d=" M 1347 399 L 1522 540 L 1490 860 L 687 1043" fill="none" paint-order="fill stroke markers" stroke="#000000" stroke-dasharray="" stroke-miterlimit="10"/></g><g><path d=" M 695.9732751923341 1036.637584395637 L 687 1043 L 697.8439709565247 1044.8461565193802" fill="none" paint-order="fill stroke markers" stroke="#000000" stroke-dasharray="" stroke-miterlimit="10"/></g><g><path d=" M 123.85653320312503 1077.85 C 123.85653320312503 1072.9622795199998 127.81433557112501 1069 132.696533203125 1069 C 137.578730835125 1069 141.53653320312497 1072.9622795199998 141.53653320312497 1077.85 C 141.53653320312497 1082.73772048 137.578730835125 1086.7 132.696533203125 1086.7 C 127.81433557112501 1086.7 123.85653320312503 1082.73772048 123.85653320312503 1077.85 Z" fill="#ffffff" paint-order="stroke fill markers" stroke="none"/></g><g><path d=" M 123.85653320312503 1077.85 C 123.85653320312503 1072.9622795199998 127.81433557112501 1069 132.696533203125 1069 C 137.578730835125 1069 141.53653320312497 1072.9622795199998 141.53653320312497 1077.85 C 141.53653320312497 1082.73772048 137.578730835125 1086.7 132.696533203125 1086.7 C 127.81433557112501 1086.7 123.85653320312503 1082.73772048 123.85653320312503 1077.85 Z" fill="none" paint-order="fill stroke markers" stroke="#000000" stroke-dasharray="" stroke-miterlimit="10"/></g><g><path d=" M 132.696533203125 1086.7 L 132.696533203125 1104.3" fill="none" paint-order="fill stroke markers" stroke="#000000" stroke-dasharray="" stroke-miterlimit="10"/></g><g><path d=" M 123.33653320312499 1093.3 L 142.056533203125 1093.3" fill="none" paint-order="fill stroke markers" stroke="#000000" stroke-dasharray="" stroke-miterlimit="10"/></g><g><path d=" M 132.696533203125 1104.3 L 119.696533203125 1122" fill="none" paint-order="fill stroke markers" stroke="#000000" stroke-dasharray="" stroke-miterlimit="10"/></g><g><path d=" M 132.696533203125 1104.3 L 145.696533203125 1122" fill="none" paint-order="fill stroke markers" stroke="#000000" stroke-dasharray="" stroke-miterlimit="10"/></g><g><g><path fill="none" stroke="none"/><text dominant-baseline="central" fill="#000000" font-family="Arial" font-size="13px" font-style="normal" font-weight="bold" stroke="none" text-anchor="middle" text-decoration="undefined" transform="matrix(1 0 0 1 -262 -20)" x="395.196533203125" y="1156.5">Информационная система</text></g></g><g><path d=" M 224 1073 L 499 968" fill="none" paint-order="fill stroke markers" stroke="#000000" stroke-dasharray="" stroke-miterlimit="10"/></g><g><path d=" M 491.0073838693718 975.5576509173434 L 499 968 L 488.0043007211176 967.6924331481061" fill="none" paint-order="fill stroke markers" stroke="#000000" stroke-dasharray="" stroke-miterlimit="10"/></g><g><path d=" M 224 1115 L 689 1149" fill="none" paint-order="fill stroke markers" stroke="#000000" stroke-dasharray="" stroke-miterlimit="10"/></g><g><path d=" M 678.5574097562509 1152.457211159469 L 689 1149 L 679.1713561706383 1144.0605910803467" fill="none" paint-order="fill stroke markers" stroke="#000000" stroke-dasharray="" stroke-miterlimit="10"/></g><g><path d=" M 224 1125 L 866 1244 L 1083 1104" fill="none" paint-order="fill stroke markers" stroke="#000000" stroke-dasharray="" stroke-miterlimit="10"/></g><g><path d=" M 1076.7424310646752 1113.046702770604 L 1083 1104 L 1072.1782456956162 1105.9722154485628" fill="none" paint-order="fill stroke markers" stroke="#000000" stroke-dasharray="" stroke-miterlimit="10"/></g><g><path d=" M 124 1067 L 10 452 L 90 60 L 353 55" fill="none" paint-order="fill stroke markers" stroke="#000000" stroke-dasharray="" stroke-miterlimit="10"/></g><g><path d=" M 342.9191756067464 59.40192907171192 L 353 55 L 342.75914681466986 50.98441460848929" fill="none" paint-order="fill stroke markers" stroke="#000000" stroke-dasharray="" stroke-miterlimit="10"/></g></g></svg>