<?xml version="1.0" encoding="UTF-8" standalone="no"?><svg xmlns="http://www.w3.org/2000/svg" xmlns:xlink="http://www.w3.org/1999/xlink" height="660" version="1.1" width="1124"><defs/><g><g><path d=" M 17 59 L 214 59 L 214 152 L 17 152" fill="#C0C0C0" fill-opacity="0.2" paint-order="stroke fill markers" stroke="none"/></g><g><path d=" M 17 59 L 27 49 L 224 49 L 214 59" fill="#C0C0C0" fill-opacity="0.2" paint-order="stroke fill markers" stroke="none"/></g><g><path d=" M 224 49 L 214 59 L 214 152 L 224 142" fill="#C0C0C0" fill-opacity="0.2" paint-order="stroke fill markers" stroke="none"/></g><g><path d=" M 10 52 L 207 52 L 207 145 L 10 145" fill="#ffffff" paint-order="stroke fill markers" stroke="none"/></g><g><path d=" M 10 52 L 20 42 L 217 42 L 207 52" fill="#ffffff" paint-order="stroke fill markers" stroke="none"/></g><g><path d=" M 217 42 L 207 52 L 207 145 L 217 135" fill="#ffffff" paint-order="stroke fill markers" stroke="none"/></g><g><path d=" M 10 52 L 207 52 L 207 145 L 10 145 L 10 52" fill="none" paint-order="fill stroke markers" stroke="#000000" stroke-dasharray="" stroke-miterlimit="10"/></g><g><path d=" M 10 52 L 20 42 L 217 42 L 207 52 L 10 52" fill="none" paint-order="fill stroke markers" stroke="#000000" stroke-dasharray="" stroke-miterlimit="10"/></g><g><path d=" M 217 42 L 207 52 L 207 145 L 217 135 L 217 42" fill="none" paint-order="fill stroke markers" stroke="#000000" stroke-dasharray="" stroke-miterlimit="10"/></g><g><g><path fill="none" stroke="none"/><text dominant-baseline="central" fill="#000000" font-family="Arial" font-size="13px" font-style="normal" font-weight="bold" stroke="none" text-anchor="middle" text-decoration="undefined" transform="matrix(1 0 0 1 -542 -302)" x="651.5" y="367.5">Компьютер сотрудника</text></g></g><g><rect fill="#C0C0C0" fill-opacity="0.2" height="45" stroke="none" transform="matrix(1 0 0 1 -542 -302)" width="172.81982421875" x="569" y="391"/></g><g><rect fill="#ffffff" height="45" stroke="none" transform="matrix(1 0 0 1 -542 -302)" width="172.81982421875" x="562" y="384"/></g><g><path d=" M 20 82 L 192.81982421875 82 L 192.81982421875 127 L 20 127 L 20 82 Z Z" fill="none" paint-order="fill stroke markers" stroke="#000000" stroke-dasharray="" stroke-miterlimit="10"/></g><g><rect fill="#ffffff" height="10" stroke="none" transform="matrix(1 0 0 1 -542 -302)" width="20" x="552" y="391"/></g><g><path d=" M 10 89 L 30 89 L 30 99 L 10 99 L 10 89 Z Z" fill="none" paint-order="fill stroke markers" stroke="#000000" stroke-dasharray="" stroke-miterlimit="10"/></g><g><rect fill="#ffffff" height="10" stroke="none" transform="matrix(1 0 0 1 -542 -302)" width="20" x="552" y="411"/></g><g><path d=" M 10 109 L 30 109 L 30 119 L 10 119 L 10 109 Z Z" fill="none" paint-order="fill stroke markers" stroke="#000000" stroke-dasharray="" stroke-miterlimit="10"/></g><g><g><path fill="none" stroke="none"/><text dominant-baseline="central" fill="#000000" font-family="Arial" font-size="13px" font-style="normal" font-weight="bold" stroke="none" text-anchor="middle" text-decoration="undefined" transform="matrix(1 0 0 1 -542 -302)" x="653.909912109375" y="397.5">Интерфейс управления</text></g></g><g><path d=" M 49 371 L 194.5634765625 371 L 194.5634765625 464 L 49 464" fill="#C0C0C0" fill-opacity="0.2" paint-order="stroke fill markers" stroke="none"/></g><g><path d=" M 49 371 L 59 361 L 204.5634765625 361 L 194.5634765625 371" fill="#C0C0C0" fill-opacity="0.2" paint-order="stroke fill markers" stroke="none"/></g><g><path d=" M 204.5634765625 361 L 194.5634765625 371 L 194.5634765625 464 L 204.5634765625 454" fill="#C0C0C0" fill-opacity="0.2" paint-order="stroke fill markers" stroke="none"/></g><g><path d=" M 42 364 L 187.5634765625 364 L 187.5634765625 457 L 42 457" fill="#ffffff" paint-order="stroke fill markers" stroke="none"/></g><g><path d=" M 42 364 L 52 354 L 197.5634765625 354 L 187.5634765625 364" fill="#ffffff" paint-order="stroke fill markers" stroke="none"/></g><g><path d=" M 197.5634765625 354 L 187.5634765625 364 L 187.5634765625 457 L 197.5634765625 447" fill="#ffffff" paint-order="stroke fill markers" stroke="none"/></g><g><path d=" M 42 364 L 187.5634765625 364 L 187.5634765625 457 L 42 457 L 42 364" fill="none" paint-order="fill stroke markers" stroke="#000000" stroke-dasharray="" stroke-miterlimit="10"/></g><g><path d=" M 42 364 L 52 354 L 197.5634765625 354 L 187.5634765625 364 L 42 364" fill="none" paint-order="fill stroke markers" stroke="#000000" stroke-dasharray="" stroke-miterlimit="10"/></g><g><path d=" M 197.5634765625 354 L 187.5634765625 364 L 187.5634765625 457 L 197.5634765625 447 L 197.5634765625 354" fill="none" paint-order="fill stroke markers" stroke="#000000" stroke-dasharray="" stroke-miterlimit="10"/></g><g><g><path fill="none" stroke="none"/><text dominant-baseline="central" fill="#000000" font-family="Arial" font-size="13px" font-style="normal" font-weight="bold" stroke="none" text-anchor="middle" text-decoration="undefined" transform="matrix(1 0 0 1 -542 -302)" x="657.78173828125" y="679.5">Компьютер партнера</text></g></g><g><rect fill="#C0C0C0" fill-opacity="0.2" height="45" stroke="none" transform="matrix(1 0 0 1 -542 -302)" width="100.5263671875" x="601" y="703"/></g><g><rect fill="#ffffff" height="45" stroke="none" transform="matrix(1 0 0 1 -542 -302)" width="100.5263671875" x="594" y="696"/></g><g><path d=" M 52 394 L 152.5263671875 394 L 152.5263671875 439 L 52 439 L 52 394 Z Z" fill="none" paint-order="fill stroke markers" stroke="#000000" stroke-dasharray="" stroke-miterlimit="10"/></g><g><rect fill="#ffffff" height="10" stroke="none" transform="matrix(1 0 0 1 -542 -302)" width="20" x="584" y="703"/></g><g><path d=" M 42 401 L 62 401 L 62 411 L 42 411 L 42 401 Z Z" fill="none" paint-order="fill stroke markers" stroke="#000000" stroke-dasharray="" stroke-miterlimit="10"/></g><g><rect fill="#ffffff" height="10" stroke="none" transform="matrix(1 0 0 1 -542 -302)" width="20" x="584" y="723"/></g><g><path d=" M 42 421 L 62 421 L 62 431 L 42 431 L 42 421 Z Z" fill="none" paint-order="fill stroke markers" stroke="#000000" stroke-dasharray="" stroke-miterlimit="10"/></g><g><g><path fill="none" stroke="none"/><text dominant-baseline="central" fill="#000000" font-family="Arial" font-size="13px" font-style="normal" font-weight="bold" stroke="none" text-anchor="middle" text-decoration="undefined" transform="matrix(1 0 0 1 -542 -302)" x="649.76318359375" y="709.5">Веб-браузер</text></g></g><g><path d=" M 529 27 L 1110 27 L 1110 344 L 529 344" fill="#C0C0C0" fill-opacity="0.2" paint-order="stroke fill markers" stroke="none"/></g><g><path d=" M 529 27 L 539 17 L 1120 17 L 1110 27" fill="#C0C0C0" fill-opacity="0.2" paint-order="stroke fill markers" stroke="none"/></g><g><path d=" M 1120 17 L 1110 27 L 1110 344 L 1120 334" fill="#C0C0C0" fill-opacity="0.2" paint-order="stroke fill markers" stroke="none"/></g><g><path d=" M 522 20 L 1103 20 L 1103 337 L 522 337" fill="#ffffff" paint-order="stroke fill markers" stroke="none"/></g><g><path d=" M 522 20 L 532 10 L 1113 10 L 1103 20" fill="#ffffff" paint-order="stroke fill markers" stroke="none"/></g><g><path d=" M 1113 10 L 1103 20 L 1103 337 L 1113 327" fill="#ffffff" paint-order="stroke fill markers" stroke="none"/></g><g><path d=" M 522 20 L 1103 20 L 1103 337 L 522 337 L 522 20" fill="none" paint-order="fill stroke markers" stroke="#000000" stroke-dasharray="" stroke-miterlimit="10"/></g><g><path d=" M 522 20 L 532 10 L 1113 10 L 1103 20 L 522 20" fill="none" paint-order="fill stroke markers" stroke="#000000" stroke-dasharray="" stroke-miterlimit="10"/></g><g><path d=" M 1113 10 L 1103 20 L 1103 337 L 1113 327 L 1113 10" fill="none" paint-order="fill stroke markers" stroke="#000000" stroke-dasharray="" stroke-miterlimit="10"/></g><g><g><path fill="none" stroke="none"/><text dominant-baseline="central" fill="#000000" font-family="Arial" font-size="13px" font-style="normal" font-weight="bold" stroke="none" text-anchor="middle" text-decoration="undefined" transform="matrix(1 0 0 1 -542 -302)" x="1355.5" y="335.5">Сервер приложений</text></g></g><g><path d=" M 946.3876953125 65 L 974.3876953125 65 L 986.3876953125 77 L 986.3876953125 115 L 946.3876953125 115" fill="#C0C0C0" fill-opacity="0.2" paint-order="stroke fill markers" stroke="none"/></g><g><path d=" M 939.3876953125 58 L 967.3876953125 58 L 979.3876953125 70 L 979.3876953125 108 L 939.3876953125 108" fill="#ffffff" paint-order="stroke fill markers" stroke="none"/></g><g><path d=" M 939.3876953125 58 L 967.3876953125 58 L 979.3876953125 70 L 979.3876953125 108 L 939.3876953125 108 L 939.3876953125 58" fill="none" paint-order="fill stroke markers" stroke="#000000" stroke-dasharray="" stroke-miterlimit="10"/></g><g><path d=" M 967.3876953125 58 L 967.3876953125 70 L 979.3876953125 70 L 967.3876953125 58" fill="none" paint-order="fill stroke markers" stroke="#000000" stroke-dasharray="" stroke-miterlimit="10"/></g><g><g><path fill="none" stroke="none"/><text dominant-baseline="central" fill="#000000" font-family="Arial" font-size="13px" font-style="normal" font-weight="bold" stroke="none" text-anchor="middle" text-decoration="undefined" transform="matrix(1 0 0 1 -542 -302)" x="1501.8876953125" y="423.5">Конфигурация интерфейса управления</text></g></g><g><path d=" M 662.551025390625 161 L 690.551025390625 161 L 702.551025390625 173 L 702.551025390625 211 L 662.551025390625 211" fill="#C0C0C0" fill-opacity="0.2" paint-order="stroke fill markers" stroke="none"/></g><g><path d=" M 655.551025390625 154 L 683.551025390625 154 L 695.551025390625 166 L 695.551025390625 204 L 655.551025390625 204" fill="#ffffff" paint-order="stroke fill markers" stroke="none"/></g><g><path d=" M 655.551025390625 154 L 683.551025390625 154 L 695.551025390625 166 L 695.551025390625 204 L 655.551025390625 204 L 655.551025390625 154" fill="none" paint-order="fill stroke markers" stroke="#000000" stroke-dasharray="" stroke-miterlimit="10"/></g><g><path d=" M 683.551025390625 154 L 683.551025390625 166 L 695.551025390625 166 L 683.551025390625 154" fill="none" paint-order="fill stroke markers" stroke="#000000" stroke-dasharray="" stroke-miterlimit="10"/></g><g><g><path fill="none" stroke="none"/><text dominant-baseline="central" fill="#000000" font-family="Arial" font-size="13px" font-style="normal" font-weight="bold" stroke="none" text-anchor="middle" text-decoration="undefined" transform="matrix(1 0 0 1 -542 -302)" x="1218.051025390625" y="519.5">Конфигурация системы управления заказами</text></g></g><g><path d=" M 585 491 L 1046 491 L 1046 656 L 585 656" fill="#C0C0C0" fill-opacity="0.2" paint-order="stroke fill markers" stroke="none"/></g><g><path d=" M 585 491 L 595 481 L 1056 481 L 1046 491" fill="#C0C0C0" fill-opacity="0.2" paint-order="stroke fill markers" stroke="none"/></g><g><path d=" M 1056 481 L 1046 491 L 1046 656 L 1056 646" fill="#C0C0C0" fill-opacity="0.2" paint-order="stroke fill markers" stroke="none"/></g><g><path d=" M 578 484 L 1039 484 L 1039 649 L 578 649" fill="#ffffff" paint-order="stroke fill markers" stroke="none"/></g><g><path d=" M 578 484 L 588 474 L 1049 474 L 1039 484" fill="#ffffff" paint-order="stroke fill markers" stroke="none"/></g><g><path d=" M 1049 474 L 1039 484 L 1039 649 L 1049 639" fill="#ffffff" paint-order="stroke fill markers" stroke="none"/></g><g><path d=" M 578 484 L 1039 484 L 1039 649 L 578 649 L 578 484" fill="none" paint-order="fill stroke markers" stroke="#000000" stroke-dasharray="" stroke-miterlimit="10"/></g><g><path d=" M 578 484 L 588 474 L 1049 474 L 1039 484 L 578 484" fill="none" paint-order="fill stroke markers" stroke="#000000" stroke-dasharray="" stroke-miterlimit="10"/></g><g><path d=" M 1049 474 L 1039 484 L 1039 649 L 1049 639 L 1049 474" fill="none" paint-order="fill stroke markers" stroke="#000000" stroke-dasharray="" stroke-miterlimit="10"/></g><g><g><path fill="none" stroke="none"/><text dominant-baseline="central" fill="#000000" font-family="Arial" font-size="13px" font-style="normal" font-weight="bold" stroke="none" text-anchor="middle" text-decoration="undefined" transform="matrix(1 0 0 1 -542 -302)" x="1351.5" y="799.5">Сервер базы данных</text></g></g><g><path d=" M 710.015625 521 L 738.015625 521 L 750.015625 533 L 750.015625 571 L 710.015625 571" fill="#C0C0C0" fill-opacity="0.2" paint-order="stroke fill markers" stroke="none"/></g><g><path d=" M 703.015625 514 L 731.015625 514 L 743.015625 526 L 743.015625 564 L 703.015625 564" fill="#ffffff" paint-order="stroke fill markers" stroke="none"/></g><g><path d=" M 703.015625 514 L 731.015625 514 L 743.015625 526 L 743.015625 564 L 703.015625 564 L 703.015625 514" fill="none" paint-order="fill stroke markers" stroke="#000000" stroke-dasharray="" stroke-miterlimit="10"/></g><g><path d=" M 731.015625 514 L 731.015625 526 L 743.015625 526 L 731.015625 514" fill="none" paint-order="fill stroke markers" stroke="#000000" stroke-dasharray="" stroke-miterlimit="10"/></g><g><g><path fill="none" stroke="none"/><text dominant-baseline="central" fill="#000000" font-family="Arial" font-size="13px" font-style="normal" font-weight="bold" stroke="none" text-anchor="middle" text-decoration="undefined" transform="matrix(1 0 0 1 -542 -302)" x="1265.515625" y="879.5">База данных заказов</text></g></g><g><path d=" M 119 353 L 115 147" fill="none" paint-order="fill stroke markers" stroke="#000000" stroke-dasharray="" stroke-miterlimit="10"/></g><g><rect fill="#ffffff" height="13" stroke="none" transform="matrix(1 0 0 1 -542 -302)" width="181.390625" x="554" y="546"/></g><g><g><path fill="none" stroke="none"/><text dominant-baseline="central" fill="#000000" font-family="Arial" font-size="13px" font-style="normal" font-weight="normal" stroke="none" text-anchor="middle" text-decoration="undefined" transform="matrix(1 0 0 1 -542 -302)" x="644.6953125" y="552.5">+Физическое взаимодействие</text></g></g><g><rect fill="#C0C0C0" fill-opacity="0.2" height="45" stroke="none" transform="matrix(1 0 0 1 -542 -302)" width="99.44091796875" x="1457" y="839"/></g><g><rect fill="#ffffff" height="45" stroke="none" transform="matrix(1 0 0 1 -542 -302)" width="99.44091796875" x="1450" y="832"/></g><g><path d=" M 908 530 L 1007.44091796875 530 L 1007.44091796875 575 L 908 575 L 908 530 Z Z" fill="none" paint-order="fill stroke markers" stroke="#000000" stroke-dasharray="" stroke-miterlimit="10"/></g><g><rect fill="#ffffff" height="10" stroke="none" transform="matrix(1 0 0 1 -542 -302)" width="20" x="1440" y="839"/></g><g><path d=" M 898 537 L 918 537 L 918 547 L 898 547 L 898 537 Z Z" fill="none" paint-order="fill stroke markers" stroke="#000000" stroke-dasharray="" stroke-miterlimit="10"/></g><g><rect fill="#ffffff" height="10" stroke="none" transform="matrix(1 0 0 1 -542 -302)" width="20" x="1440" y="859"/></g><g><path d=" M 898 557 L 918 557 L 918 567 L 898 567 L 898 557 Z Z" fill="none" paint-order="fill stroke markers" stroke="#000000" stroke-dasharray="" stroke-miterlimit="10"/></g><g><g><path fill="none" stroke="none"/><text dominant-baseline="central" fill="#000000" font-family="Arial" font-size="13px" font-style="normal" font-weight="bold" stroke="none" text-anchor="middle" text-decoration="undefined" transform="matrix(1 0 0 1 -542 -302)" x="1505.220458984375" y="845.5">PostgreSQL</text></g></g><g><path d=" M 897 552 L 821 551" fill="none" paint-order="fill stroke markers" stroke="#000000" stroke-dasharray="3" stroke-miterlimit="10"/></g><g><path d=" M 831.2171788363521 546.9245544260782 L 821 551 L 831.106411641457 555.3428612381035" fill="none" paint-order="fill stroke markers" stroke="#000000" stroke-dasharray="" stroke-miterlimit="10"/></g><g><rect fill="#C0C0C0" fill-opacity="0.2" height="45" stroke="none" transform="matrix(1 0 0 1 -542 -302)" width="217.2978515625" x="1417" y="479"/></g><g><rect fill="#ffffff" height="45" stroke="none" transform="matrix(1 0 0 1 -542 -302)" width="217.2978515625" x="1410" y="472"/></g><g><path d=" M 868 170 L 1085.2978515625 170 L 1085.2978515625 215 L 868 215 L 868 170 Z Z" fill="none" paint-order="fill stroke markers" stroke="#000000" stroke-dasharray="" stroke-miterlimit="10"/></g><g><rect fill="#ffffff" height="10" stroke="none" transform="matrix(1 0 0 1 -542 -302)" width="20" x="1400" y="479"/></g><g><path d=" M 858 177 L 878 177 L 878 187 L 858 187 L 858 177 Z Z" fill="none" paint-order="fill stroke markers" stroke="#000000" stroke-dasharray="" stroke-miterlimit="10"/></g><g><rect fill="#ffffff" height="10" stroke="none" transform="matrix(1 0 0 1 -542 -302)" width="20" x="1400" y="499"/></g><g><path d=" M 858 197 L 878 197 L 878 207 L 858 207 L 858 197 Z Z" fill="none" paint-order="fill stroke markers" stroke="#000000" stroke-dasharray="" stroke-miterlimit="10"/></g><g><g><path fill="none" stroke="none"/><text dominant-baseline="central" fill="#000000" font-family="Arial" font-size="13px" font-style="normal" font-weight="bold" stroke="none" text-anchor="middle" text-decoration="undefined" transform="matrix(1 0 0 1 -542 -302)" x="1524.14892578125" y="485.5">Система управления заказами</text></g></g><g><path d=" M 857 192 L 830 192" fill="none" paint-order="fill stroke markers" stroke="#000000" stroke-dasharray="3" stroke-miterlimit="10"/></g><g><path d=" M 840.1626748576241 187.790482243984 L 830 192 L 840.1626748576241 196.209517756016" fill="none" paint-order="fill stroke markers" stroke="#000000" stroke-dasharray="" stroke-miterlimit="10"/></g><g><path d=" M 680.0455321534073 75.11227272159465 A 12 12 0 0 1 669.9544678465927 96.88772727840535" fill="none" paint-order="fill stroke markers" stroke="#000000" stroke-dasharray="" stroke-miterlimit="10"/></g><g><path d=" M 676.8789726520592 97.85198134375906 A 12 12 0 0 1 673.1210273479408 74.14801865624094" fill="none" paint-order="fill stroke markers" stroke="#000000" stroke-dasharray="" stroke-miterlimit="10"/></g><g><g><path fill="none" stroke="none"/><text dominant-baseline="central" fill="#000000" font-family="Arial" font-size="13px" font-style="normal" font-weight="bold" stroke="none" text-anchor="middle" text-decoration="undefined" transform="matrix(1 0 0 1 -542 -302)" x="1217.909912109375" y="413.5">Интерфейс управления</text></g></g><g><path d=" M 899 169 L 687.409912109375 91.75093487995429" fill="none" paint-order="fill stroke markers" stroke="#000000" stroke-dasharray="" stroke-miterlimit="10"/></g><g><path d=" M 758 97 L 825 96" fill="none" paint-order="fill stroke markers" stroke="#000000" stroke-dasharray="3" stroke-miterlimit="10"/></g><g><path d=" M 814.9012785327102 100.36071378630822 L 825 96 L 814.7756352800529 91.9426158582774" fill="none" paint-order="fill stroke markers" stroke="#000000" stroke-dasharray="" stroke-miterlimit="10"/></g><g><path d=" M 816 339 L 815 473" fill="none" paint-order="fill stroke markers" stroke="#000000" stroke-dasharray="" stroke-miterlimit="10"/></g><g><rect fill="#ffffff" height="13" stroke="none" transform="matrix(1 0 0 1 -542 -302)" width="90.37158203125" x="1326" y="701"/></g><g><g><path fill="none" stroke="none"/><text dominant-baseline="central" fill="#000000" font-family="Arial" font-size="13px" font-style="normal" font-weight="normal" stroke="none" text-anchor="middle" text-decoration="undefined" transform="matrix(1 0 0 1 -542 -302)" x="1371.185791015625" y="707.5">+TCP или UDP</text></g></g><g><path d=" M 219 77 L 378 50 L 521 90" fill="none" paint-order="fill stroke markers" stroke="#000000" stroke-dasharray="" stroke-miterlimit="10"/></g><g><rect fill="#ffffff" height="13" stroke="none" transform="matrix(1 0 0 1 -542 -302)" width="90.37158203125" x="837" y="339"/></g><g><g><path fill="none" stroke="none"/><text dominant-baseline="central" fill="#000000" font-family="Arial" font-size="13px" font-style="normal" font-weight="normal" stroke="none" text-anchor="middle" text-decoration="undefined" transform="matrix(1 0 0 1 -542 -302)" x="882.185791015625" y="345.5">+TCP или UDP</text></g></g><g><path d=" M 194 103 L 663.409912109375 87.83745295826981" fill="none" paint-order="fill stroke markers" stroke="#000000" stroke-dasharray="" stroke-miterlimit="10"/></g><g><path d=" M 982.9834139519901 286.6307059974731 A 12 12 0 0 1 959.0165860480099 285.3692940025269" fill="none" paint-order="fill stroke markers" stroke="#000000" stroke-dasharray="" stroke-miterlimit="10"/></g><g><path d=" M 959 286 A 12 12 0 0 1 983 286" fill="none" paint-order="fill stroke markers" stroke="#000000" stroke-dasharray="" stroke-miterlimit="10"/></g><g><g><path fill="none" stroke="none"/><text dominant-baseline="central" fill="#000000" font-family="Arial" font-size="13px" font-style="normal" font-weight="bold" stroke="none" text-anchor="middle" text-decoration="undefined" transform="matrix(1 0 0 1 -542 -302)" x="1513.70849609375" y="613.5">Интерфейс взаимодействия с БД</text></g></g><g><path d=" M 954 529 L 970.3684210526317 298" fill="none" paint-order="fill stroke markers" stroke="#000000" stroke-dasharray="" stroke-miterlimit="10"/></g><g><path d=" M 971 216 L 971 274" fill="none" paint-order="fill stroke markers" stroke="#000000" stroke-dasharray="" stroke-miterlimit="10"/></g></g></svg>